<svg xmlns="http://www.w3.org/2000/svg" viewBox="0 0 32 32">
    <path d="M16 26.5c5.233 0 9.5-4.267 9.5-9.5a9.4 9.4 0 0 0-.801-3.814l-2.323 2.338q.123.699.124 1.476c0 4-2.5 6.5-6.5 6.5S9.5 21 9.5 17s2.5-6.5 6.5-6.5q.76 0 1.445.118l2.316-2.34a9.4 9.4 0 0 0-2.261-.66V6h2c0-1.7-.434-2-3.5-2-3.067 0-3.5.3-3.5 2h2v1.618c-4.525.723-8 4.659-8 9.382 0 5.233 4.266 9.5 9.5 9.5m3.544-15.159a5.43 5.43 0 0 1 2.098 2.085l2.019-2.034a9.6 9.6 0 0 0-2.101-2.088zm-5.877 7.992L17.1 18l9.4-9.467c.633-.633.933-1.2 0-2.133-.933-.867-1.5-.567-2.1.033l-9.4 9.5z" fill="#929190"/>
</svg>